<?xml version="1.0" standalone="no"?>
<!DOCTYPE svg PUBLIC "-//W3C//DTD SVG 20010904//EN"
 "http://www.w3.org/TR/2001/REC-SVG-20010904/DTD/svg10.dtd">
<svg version="1.0" xmlns="http://www.w3.org/2000/svg"
 width="1024.000000pt" height="1024.000000pt" viewBox="0 0 1024.000000 1024.000000"
 preserveAspectRatio="xMidYMid meet">
<metadata>
Created by potrace 1.11, written by Peter Selinger 2001-2013
</metadata>
<g transform="translate(0.000000,1024.000000) scale(0.100000,-0.100000)"
fill="#000000" stroke="none">
<path d="M4785 10234 c-22 -2 -92 -9 -155 -14 -1165 -105 -2284 -634 -3130
-1480 -785 -784 -1292 -1791 -1449 -2875 -41 -281 -46 -364 -46 -745 0 -381 5
-464 46 -745 157 -1084 664 -2090 1449 -2875 785 -785 1791 -1292 2875 -1449
281 -41 364 -46 745 -46 381 0 464 5 745 46 1413 204 2679 1000 3497 2199 429
629 718 1370 827 2125 41 281 46 364 46 745 0 381 -5 464 -46 745 -204 1413
-1000 2679 -2199 3497 -697 476 -1474 758 -2365 859 -96 10 -757 21 -840 13z
m740 -225 c823 -68 1602 -338 2294 -796 289 -190 511 -373 766 -628 401 -400
697 -814 945 -1320 511 -1044 632 -2242 340 -3373 -277 -1069 -913 -2018
-1806 -2694 -506 -383 -1115 -675 -1739 -833 -410 -104 -767 -148 -1205 -148
-438 0 -795 44 -1205 148 -1081 274 -2035 910 -2718 1812 -383 506 -674 1113
-832 1738 -104 410 -148 767 -148 1205 0 438 44 795 148 1205 274 1080 911
2035 1812 2718 234 177 546 367 818 498 609 293 1241 450 1945 483 110 5 447
-4 585 -15z"/>
<path d="M4740 9869 c-594 -48 -1197 -217 -1730 -484 -1332 -667 -2272 -1915
-2541 -3375 -120 -654 -101 -1329 58 -1982 l36 -148 1802 0 1803 0 503 255
c277 140 509 255 516 255 6 0 238 -115 516 -255 l504 -255 1739 2 1738 3 37
150 c203 829 173 1726 -84 2540 -430 1359 -1453 2456 -2777 2978 -435 172
-856 271 -1328 312 -181 16 -615 18 -792 4z m565 -3604 l0 -90 -70 0 -70 0 -3
79 c-2 44 -1 85 2 93 4 10 23 13 73 11 l68 -3 0 -90z m-1032 78 l67 -6 0 -58
0 -57 -222 -4 c-329 -5 -328 -5 -336 -260 l-5 -158 269 0 c148 0 275 -4 282
-9 9 -5 12 -25 10 -62 l-3 -54 -277 -3 -278 -2 -2 -293 -3 -292 -65 0 -65 0
-3 510 c-2 336 1 525 8 553 23 95 96 162 204 188 55 13 309 18 419 7z m3852
-618 l0 -620 -50 -13 c-27 -7 -122 -16 -211 -19 -135 -5 -169 -3 -212 11 -110
37 -184 114 -218 228 -27 90 -27 376 -1 463 35 113 92 179 192 221 49 21 215
30 298 16 l57 -9 0 158 c0 86 3 165 6 174 5 13 19 15 73 13 l66 -3 0 -620z
m-6503 602 c7 -8 78 -149 158 -315 101 -212 149 -302 160 -302 12 0 60 92 165
310 81 170 155 312 162 315 31 11 160 5 172 -9 8 -9 10 -182 9 -627 l-3 -614
-65 0 -65 0 -5 525 -5 525 -67 -137 c-38 -76 -97 -198 -132 -272 -37 -77 -73
-139 -85 -145 -26 -14 -136 -14 -162 0 -11 6 -40 52 -63 102 -24 51 -84 173
-132 272 l-89 180 -5 -525 -5 -525 -65 0 -65 0 -3 614 c-1 445 1 618 9 627 16
19 162 19 181 1z m3348 -367 l0 -60 -32 0 c-49 -1 -116 -18 -180 -47 l-58 -26
-2 -371 -3 -371 -65 0 -65 0 0 460 0 460 53 3 c60 3 82 -8 82 -45 l0 -24 45
27 c60 35 119 53 178 53 l47 1 0 -60z m1103 32 c73 -33 120 -75 154 -139 39
-73 55 -155 51 -263 l-3 -85 -299 -3 -299 -2 5 -78 c8 -128 58 -198 159 -222
52 -13 249 -9 362 6 l47 7 0 -56 c0 -52 -1 -56 -27 -61 -165 -34 -359 -36
-459 -5 -56 17 -77 31 -125 78 -75 76 -98 144 -106 321 -13 309 62 462 256
517 70 20 224 11 284 -15z m983 -3 c56 -29 108 -91 126 -152 10 -31 13 -138
13 -397 l0 -355 -65 0 -65 0 -5 345 c-5 319 -6 348 -25 385 -30 60 -73 80
-170 79 -64 0 -95 -6 -152 -29 l-73 -29 0 -366 c0 -271 -3 -369 -12 -378 -19
-19 -124 -16 -132 4 -3 9 -6 212 -6 453 0 327 3 440 12 449 7 7 36 12 65 12
49 0 54 -2 65 -27 7 -16 13 -29 13 -31 1 -1 28 9 60 23 84 38 120 44 216 42
69 -3 96 -8 135 -28z m1834 13 c40 -9 57 -42 46 -86 l-7 -27 -172 7 c-187 7
-234 0 -262 -39 -22 -32 -19 -87 8 -119 12 -15 89 -68 170 -117 82 -50 166
-104 187 -121 114 -90 121 -280 15 -367 -63 -52 -139 -67 -312 -60 -81 3 -165
10 -185 17 -37 11 -38 12 -38 60 l0 49 193 -5 c191 -6 192 -6 227 18 61 42 66
126 10 178 -16 15 -89 63 -162 106 -211 125 -268 189 -268 303 0 71 12 106 48
144 32 34 67 54 119 67 42 10 328 5 383 -8z m-6093 -4 c5 -7 56 -185 113 -395
57 -211 109 -388 116 -394 38 -31 44 -15 151 385 57 214 108 395 114 403 16
18 128 18 135 0 7 -18 -290 -1056 -318 -1111 -27 -54 -64 -93 -113 -119 -35
-19 -55 -22 -160 -21 -151 1 -175 9 -175 63 0 22 5 43 11 47 6 4 70 7 141 8
l130 1 28 32 c16 18 37 59 45 90 9 32 19 66 21 76 5 14 -1 17 -33 17 -47 0
-75 19 -96 62 -26 57 -249 838 -243 853 7 19 119 21 133 3z m2498 -453 l0
-460 -65 0 -65 0 -3 449 c-2 331 1 452 9 463 9 10 29 13 68 11 l56 -3 0 -460z"/>
<path d="M7735 5895 c-5 -2 -22 -6 -38 -9 -15 -4 -45 -23 -67 -42 -58 -53 -70
-103 -70 -299 0 -188 13 -247 64 -298 53 -53 134 -67 295 -51 l61 7 0 342 0
342 -77 7 c-79 6 -151 7 -168 1z"/>
<path d="M5845 5891 c-39 -10 -75 -29 -102 -54 -31 -28 -63 -118 -63 -177 l0
-50 230 0 231 0 -6 63 c-9 89 -49 166 -101 195 -45 24 -140 36 -189 23z"/>
<path d="M3117 3514 c-4 -4 -7 -244 -7 -533 0 -289 -5 -544 -10 -565 -11 -48
-22 -56 -82 -56 -70 0 -78 -6 -78 -55 0 -50 8 -55 87 -55 118 0 184 43 203
134 8 34 10 227 8 591 l-3 540 -55 3 c-31 2 -59 0 -63 -4z"/>
<path d="M3581 3255 c-85 -24 -144 -75 -183 -160 -21 -46 -23 -64 -23 -220 0
-156 2 -174 23 -220 38 -82 105 -140 187 -159 16 -4 63 -7 104 -7 63 0 85 5
137 31 107 52 152 137 161 304 10 187 -29 317 -115 383 -72 55 -194 75 -291
48z m178 -120 c79 -40 107 -125 99 -297 -6 -117 -27 -172 -81 -212 -42 -31
-159 -30 -203 1 -55 40 -69 82 -72 229 -5 181 17 247 92 280 41 18 130 18 165
-1z"/>
<path d="M5062 3254 c-30 -8 -63 -21 -75 -29 -29 -20 -35 -19 -39 8 -2 17 -11
23 -37 25 -19 2 -44 1 -57 -2 l-24 -6 0 -368 c0 -273 3 -371 12 -380 15 -15
72 -16 99 -2 18 10 19 24 19 306 l0 295 53 24 c29 14 71 25 94 25 48 0 73 20
73 56 0 38 -18 64 -43 63 -12 0 -46 -7 -75 -15z"/>
<path d="M5525 3260 c-22 -4 -61 -17 -86 -28 l-45 -20 -10 22 c-7 16 -19 22
-52 24 -75 6 -72 23 -72 -384 0 -349 1 -364 19 -374 11 -5 32 -10 46 -10 14 0
35 5 46 10 18 10 19 24 19 309 l0 299 62 21 c37 13 87 21 125 21 54 0 67 -4
93 -27 43 -40 50 -94 50 -378 0 -268 -3 -255 65 -255 64 0 65 6 65 258 0 238
-10 343 -36 398 -21 43 -61 83 -102 101 -42 17 -136 24 -187 13z"/>
<path d="M6193 3260 c-93 -20 -165 -78 -204 -165 -19 -41 -24 -73 -27 -178 -7
-200 18 -291 99 -361 62 -53 120 -68 252 -67 62 1 139 7 172 14 l60 12 3 47 3
46 -180 -1 c-167 -2 -181 -1 -208 19 -38 27 -63 81 -70 149 l-6 55 231 0 c280
0 268 -5 258 115 -3 44 -13 103 -21 131 -19 66 -80 135 -143 162 -56 24 -159
35 -219 22z m178 -133 c45 -30 69 -80 69 -144 l0 -53 -175 0 -175 0 0 38 c1
45 22 106 47 134 46 52 173 66 234 25z"/>
<path d="M4112 3248 c-9 -9 -12 -80 -12 -258 0 -316 11 -378 77 -444 42 -43
86 -57 174 -57 61 0 93 6 141 25 34 14 62 24 63 23 0 -1 5 -11 11 -22 13 -23
72 -32 104 -15 20 10 20 18 20 373 0 269 -3 366 -12 375 -7 7 -30 12 -53 12
-23 0 -46 -5 -53 -12 -9 -9 -12 -91 -12 -305 l0 -294 -47 -21 c-36 -16 -69
-22 -130 -22 -76 -1 -85 1 -108 25 -15 14 -30 43 -35 65 -5 21 -10 152 -10
290 0 181 -3 253 -12 262 -7 7 -30 12 -53 12 -23 0 -46 -5 -53 -12z"/>
<path d="M6662 3247 c-14 -16 176 -676 205 -715 11 -14 35 -30 55 -36 l37 -11
-18 -54 c-31 -89 -44 -96 -169 -96 l-107 0 -3 -46 c-3 -53 -4 -53 104 -64 127
-15 219 27 262 118 10 23 74 233 141 465 96 334 120 427 110 438 -18 21 -106
19 -118 -3 -5 -10 -43 -148 -85 -308 -43 -159 -79 -298 -82 -307 -7 -25 -33
-22 -43 5 -5 12 -43 150 -86 307 -42 157 -81 293 -86 303 -12 21 -100 24 -117
4z"/>
<path d="M1670 1922 c0 -15 291 -295 410 -393 874 -727 1922 -1109 3045 -1109
1126 0 2196 393 3061 1126 134 114 394 361 394 375 0 5 -1442 9 -3455 9 -1900
0 -3455 -4 -3455 -8z"/>
</g>
</svg>
